<svg xmlns="http://www.w3.org/2000/svg" xmlns:xlink="http://www.w3.org/1999/xlink" xmlns:inkscape="http://www.inkscape.org/namespaces/inkscape" version="1.1" width="841.8898" height="595.2756" viewBox="0 0 841.8898 595.2756">
<g inkscape:groupmode="layer" inkscape:label="&#x0421;&#x043B;&#x043E;&#x0439; 1">
<path transform="matrix(1,0,0,-1,0,595.2756)" stroke-width=".5669" stroke-linecap="butt" stroke-miterlimit="22.925585" stroke-linejoin="miter" fill="none" stroke="#231f20" d="M-1.0301 597.2726H841.9796V1.2523H-1.0301Z"/>
<path transform="matrix(1,0,0,-1,0,595.2756)" d="M760.9802 201.5838H703.8573V270.5122H716.9142V211.4311H724.3226 747.9247 760.9802Z"/>
<path transform="matrix(1,0,0,-1,0,595.2756)" d="M618.3502 260.6635H594.6846V201.5853H581.629V260.6635H569.6561L557.9666 270.5122H618.3502Z"/>
<path transform="matrix(1,0,0,-1,0,595.2756)" d="M656.1743 310.1547C656.1743 305.8384 654.2989 302.0627 650.5447 298.8261 646.7862 295.5883 642.4058 293.9706 637.3984 293.9706H562.2718L564.9778 296.2993V296.282L581.0695 310.1547H634.7151V391.0683H564.9778V335.0798L543.5186 314.1306C543.5186 345.1711 543.5186 376.2119 543.5186 407.2524H637.3984C642.4058 407.2524 646.7862 405.6347 650.5447 402.3958 654.2989 399.1603 656.1743 395.3846 656.1743 391.0683Z"/>
<path transform="matrix(1,0,0,-1,0,595.2756)" d="M559.588 250.4316H530.2001L429.2887 337.7095H492.683V389.8661H422.8234 417.7636 414.8836 394.7102V407.2524H495.5655C500.9451 407.2524 505.6509 405.5142 509.6889 402.0355 513.7211 398.5591 515.7363 394.5027 515.7363 389.8661V342.6763C515.7363 329.4317 509.0153 322.8092 495.5655 322.8092H478.2779V320.0757Z" fill="#00cc00"/>
<path transform="matrix(1,0,0,-1,0,595.2756)" d="M345.4699 310.1542V391.0686H275.7297V310.1542ZM366.9287 310.1542C366.9287 305.6848 365.0953 301.8691 361.4309 298.7101 357.7615 295.5512 353.3389 293.9703 348.1532 293.9703H273.0489C267.8632 293.9703 263.4358 295.5512 259.7715 298.7101 256.1046 301.8691 254.2711 305.6848 254.2711 310.1542V391.0686C254.2711 395.5382 256.1046 399.3537 259.7715 402.5129 263.4358 405.6718 267.8632 407.2524 273.0489 407.2524H348.1532C353.3389 407.2524 357.7615 405.6718 361.4309 402.5129 365.0953 399.3537 366.9287 395.5382 366.9287 391.0686Z"/>
<path transform="matrix(1,0,0,-1,0,595.2756)" d="M205.0294 354.0645V407.2229H226.4879V326.8658Z"/>
<path transform="matrix(1,0,0,-1,0,595.2756)" d="M113.8329 407.4829H136.8697L226.2413 294.2008H203.2044Z" fill-rule="evenodd"/>
<path transform="matrix(1,0,0,-1,0,595.2756)" d="M135.2917 347.3592V294.2005H113.8329V374.5576Z"/>
<path transform="matrix(1,0,0,-1,0,595.2756)" d="M689.7331 270.5122H632.6101V260.6649H689.7331Z" fill-rule="evenodd"/>
<path transform="matrix(1,0,0,-1,0,595.2756)" d="M689.7331 240.9718H632.6101V231.1243H689.7331Z" fill-rule="evenodd"/>
<path transform="matrix(1,0,0,-1,0,595.2756)" d="M689.7331 211.4311H632.6101V201.5838H689.7331Z" fill-rule="evenodd"/>
<path transform="matrix(1,0,0,-1,0,595.2756)" d="M113.8329 272.5061H448.8188L530.1984 200.8074C427.053 272.5061 366.7986 266.5179 113.8329 272.5061" fill="#00cc00" fill-rule="evenodd"/>
</g>
</svg>
